STARTFONT 2.1
COMMENT
COMMENT Converted from OpenType font "chikita.ttf" by "otf2bdf 3.0".
COMMENT
FONT -FreeType-Chikita-Medium-R-Normal--11-80-100-100-P-62-ISO10646-1
SIZE 8 100 100
FONTBOUNDINGBOX 13 15 0 -3
STARTPROPERTIES 19
FOUNDRY "FreeType"
FAMILY_NAME "Chikita"
WEIGHT_NAME "Medium"
SLANT "R"
SETWIDTH_NAME "Normal"
ADD_STYLE_NAME ""
PIXEL_SIZE 11
POINT_SIZE 80
RESOLUTION_X 100
RESOLUTION_Y 100
SPACING "P"
AVERAGE_WIDTH 62
CHARSET_REGISTRY "ISO10646"
CHARSET_ENCODING "1"
FONT_ASCENT 11
FONT_DESCENT 2
COPYRIGHT "Copyright southernmedia 2008  Chikita is based on pixelspace 5x5 by David Chiu (http://fontstruct.com/fontstructors/skyleth)"
_OTF_FONTFILE "chikita.ttf"
_OTF_PSNAME "Chikita"
ENDPROPERTIES
CHARS 260
STARTCHAR 0020
ENCODING 32
SWIDTH 270 0
DWIDTH 3 0
BBX 0 0 0 0
BITMAP
ENDCHAR
STARTCHAR 0021
ENCODING 33
SWIDTH 270 0
DWIDTH 3 0
BBX 1 10 0 -1
BITMAP
80
80
80
80
80
80
80
00
80
80
ENDCHAR
STARTCHAR 0022
ENCODING 34
SWIDTH 450 0
DWIDTH 5 0
BBX 4 3 0 6
BITMAP
90
90
90
ENDCHAR
STARTCHAR 0023
ENCODING 35
SWIDTH 720 0
DWIDTH 8 0
BBX 7 7 0 0
BITMAP
24
FE
FE
24
FE
FE
24
ENDCHAR
STARTCHAR 0024
ENCODING 36
SWIDTH 720 0
DWIDTH 8 0
BBX 7 11 0 -2
BITMAP
10
10
7E
FE
F8
78
12
FA
F8
10
10
ENDCHAR
STARTCHAR 0025
ENCODING 37
SWIDTH 720 0
DWIDTH 8 0
BBX 7 7 0 0
BITMAP
C2
CA
D8
10
4E
CE
8E
ENDCHAR
STARTCHAR 0026
ENCODING 38
SWIDTH 720 0
DWIDTH 8 0
BBX 7 7 0 0
BITMAP
10
58
7A
72
88
FA
72
ENDCHAR
STARTCHAR 0027
ENCODING 39
SWIDTH 270 0
DWIDTH 3 0
BBX 1 3 0 6
BITMAP
80
80
80
ENDCHAR
STARTCHAR 0028
ENCODING 40
SWIDTH 450 0
DWIDTH 5 0
BBX 4 11 0 -2
BITMAP
30
30
40
C0
80
80
80
40
40
30
30
ENDCHAR
STARTCHAR 0029
ENCODING 41
SWIDTH 450 0
DWIDTH 5 0
BBX 4 11 0 -2
BITMAP
80
80
40
70
30
30
30
40
40
80
80
ENDCHAR
STARTCHAR 002A
ENCODING 42
SWIDTH 630 0
DWIDTH 7 0
BBX 4 5 2 1
BITMAP
B0
F0
40
B0
B0
ENDCHAR
STARTCHAR 002B
ENCODING 43
SWIDTH 720 0
DWIDTH 8 0
BBX 7 7 0 0
BITMAP
10
10
FE
FE
10
10
10
ENDCHAR
STARTCHAR 002C
ENCODING 44
SWIDTH 270 0
DWIDTH 3 0
BBX 2 4 0 -2
BITMAP
40
40
80
80
ENDCHAR
STARTCHAR 002D
ENCODING 45
SWIDTH 720 0
DWIDTH 8 0
BBX 7 2 0 3
BITMAP
FE
FE
ENDCHAR
STARTCHAR 002E
ENCODING 46
SWIDTH 270 0
DWIDTH 3 0
BBX 1 2 0 0
BITMAP
80
80
ENDCHAR
STARTCHAR 002F
ENCODING 47
SWIDTH 630 0
DWIDTH 7 0
BBX 4 7 2 0
BITMAP
30
30
70
40
80
80
80
ENDCHAR
STARTCHAR 0030
ENCODING 48
SWIDTH 540 0
DWIDTH 6 0
BBX 5 7 0 0
BITMAP
70
F8
88
88
88
70
70
ENDCHAR
STARTCHAR 0031
ENCODING 49
SWIDTH 450 0
DWIDTH 5 0
BBX 3 7 0 0
BITMAP
20
E0
E0
20
20
20
20
ENDCHAR
STARTCHAR 0032
ENCODING 50
SWIDTH 720 0
DWIDTH 8 0
BBX 7 7 0 0
BITMAP
78
FA
BA
38
40
FE
FE
ENDCHAR
STARTCHAR 0033
ENCODING 51
SWIDTH 720 0
DWIDTH 8 0
BBX 7 7 0 0
BITMAP
F8
FA
7A
78
02
FA
F8
ENDCHAR
STARTCHAR 0034
ENCODING 52
SWIDTH 720 0
DWIDTH 8 0
BBX 7 7 0 0
BITMAP
38
78
C8
88
FE
FE
08
ENDCHAR
STARTCHAR 0035
ENCODING 53
SWIDTH 720 0
DWIDTH 8 0
BBX 7 7 0 0
BITMAP
FE
FE
FC
FC
02
FE
FC
ENDCHAR
STARTCHAR 0036
ENCODING 54
SWIDTH 720 0
DWIDTH 8 0
BBX 7 7 0 0
BITMAP
7E
FE
F8
FA
82
78
78
ENDCHAR
STARTCHAR 0037
ENCODING 55
SWIDTH 720 0
DWIDTH 8 0
BBX 7 7 0 0
BITMAP
FE
FE
06
04
10
30
20
ENDCHAR
STARTCHAR 0038
ENCODING 56
SWIDTH 720 0
DWIDTH 8 0
BBX 7 7 0 0
BITMAP
78
FA
FA
78
82
FA
78
ENDCHAR
STARTCHAR 0039
ENCODING 57
SWIDTH 720 0
DWIDTH 8 0
BBX 7 7 0 0
BITMAP
78
FA
FE
7E
02
F8
F8
ENDCHAR
STARTCHAR 003A
ENCODING 58
SWIDTH 270 0
DWIDTH 3 0
BBX 1 5 0 1
BITMAP
80
80
00
80
80
ENDCHAR
STARTCHAR 003B
ENCODING 59
SWIDTH 270 0
DWIDTH 3 0
BBX 1 6 0 0
BITMAP
80
80
00
80
80
80
ENDCHAR
STARTCHAR 003C
ENCODING 60
SWIDTH 720 0
DWIDTH 8 0
BBX 7 7 0 0
BITMAP
0E
7E
F0
80
70
7E
0E
ENDCHAR
STARTCHAR 003D
ENCODING 61
SWIDTH 720 0
DWIDTH 8 0
BBX 7 5 0 1
BITMAP
FE
FE
00
FE
FE
ENDCHAR
STARTCHAR 003E
ENCODING 62
SWIDTH 810 0
DWIDTH 9 0
BBX 7 7 0 0
BITMAP
E0
FC
1E
02
1C
FC
E0
ENDCHAR
STARTCHAR 003F
ENCODING 63
SWIDTH 720 0
DWIDTH 8 0
BBX 7 11 0 -2
BITMAP
78
78
82
8A
18
10
10
00
00
10
10
ENDCHAR
STARTCHAR 0040
ENCODING 64
SWIDTH 900 0
DWIDTH 10 0
BBX 9 11 0 -2
BITMAP
7F00
7F00
8080
8E80
9E80
9280
9F80
9F80
8000
7F00
7F00
ENDCHAR
STARTCHAR 0041
ENCODING 65
SWIDTH 720 0
DWIDTH 8 0
BBX 7 7 0 0
BITMAP
78
FA
82
82
FE
FE
82
ENDCHAR
STARTCHAR 0042
ENCODING 66
SWIDTH 720 0
DWIDTH 8 0
BBX 7 7 0 0
BITMAP
FC
FE
FE
FC
82
FE
FC
ENDCHAR
STARTCHAR 0043
ENCODING 67
SWIDTH 720 0
DWIDTH 8 0
BBX 7 7 0 0
BITMAP
78
FA
82
80
82
FA
78
ENDCHAR
STARTCHAR 0044
ENCODING 68
SWIDTH 720 0
DWIDTH 8 0
BBX 7 7 0 0
BITMAP
FC
FE
82
82
82
FC
FC
ENDCHAR
STARTCHAR 0045
ENCODING 69
SWIDTH 720 0
DWIDTH 8 0
BBX 7 7 0 0
BITMAP
FE
FE
F8
F8
80
FE
FE
ENDCHAR
STARTCHAR 0046
ENCODING 70
SWIDTH 720 0
DWIDTH 8 0
BBX 7 7 0 0
BITMAP
FE
FE
F8
F8
80
80
80
ENDCHAR
STARTCHAR 0047
ENCODING 71
SWIDTH 720 0
DWIDTH 8 0
BBX 7 7 0 0
BITMAP
78
F8
BE
BE
82
78
78
ENDCHAR
STARTCHAR 0048
ENCODING 72
SWIDTH 720 0
DWIDTH 8 0
BBX 7 7 0 0
BITMAP
82
82
FE
FE
82
82
82
ENDCHAR
STARTCHAR 0049
ENCODING 73
SWIDTH 450 0
DWIDTH 5 0
BBX 4 7 0 0
BITMAP
F0
F0
20
20
20
F0
F0
ENDCHAR
STARTCHAR 004A
ENCODING 74
SWIDTH 720 0
DWIDTH 8 0
BBX 7 7 0 0
BITMAP
02
02
02
02
82
FA
78
ENDCHAR
STARTCHAR 004B
ENCODING 75
SWIDTH 720 0
DWIDTH 8 0
BBX 7 7 0 0
BITMAP
82
8A
F8
F0
88
8A
82
ENDCHAR
STARTCHAR 004C
ENCODING 76
SWIDTH 720 0
DWIDTH 8 0
BBX 7 7 0 0
BITMAP
80
80
80
80
80
FE
FE
ENDCHAR
STARTCHAR 004D
ENCODING 77
SWIDTH 720 0
DWIDTH 8 0
BBX 7 7 0 0
BITMAP
82
EE
FE
92
82
82
82
ENDCHAR
STARTCHAR 004E
ENCODING 78
SWIDTH 720 0
DWIDTH 8 0
BBX 7 7 0 0
BITMAP
82
E2
F2
92
8E
8E
82
ENDCHAR
STARTCHAR 004F
ENCODING 79
SWIDTH 720 0
DWIDTH 8 0
BBX 7 7 0 0
BITMAP
78
FA
82
82
82
78
78
ENDCHAR
STARTCHAR 0050
ENCODING 80
SWIDTH 720 0
DWIDTH 8 0
BBX 7 7 0 0
BITMAP
FC
FE
82
82
FC
FC
80
ENDCHAR
STARTCHAR 0051
ENCODING 81
SWIDTH 720 0
DWIDTH 8 0
BBX 7 7 0 0
BITMAP
78
FA
82
82
8E
7E
7E
ENDCHAR
STARTCHAR 0052
ENCODING 82
SWIDTH 720 0
DWIDTH 8 0
BBX 7 7 0 0
BITMAP
FC
FE
82
82
FC
FE
82
ENDCHAR
STARTCHAR 0053
ENCODING 83
SWIDTH 720 0
DWIDTH 8 0
BBX 7 7 0 0
BITMAP
7E
FE
F8
78
02
FA
F8
ENDCHAR
STARTCHAR 0054
ENCODING 84
SWIDTH 720 0
DWIDTH 8 0
BBX 7 7 0 0
BITMAP
FE
FE
10
10
10
10
10
ENDCHAR
STARTCHAR 0055
ENCODING 85
SWIDTH 720 0
DWIDTH 8 0
BBX 7 7 0 0
BITMAP
82
82
82
82
82
FA
78
ENDCHAR
STARTCHAR 0056
ENCODING 86
SWIDTH 720 0
DWIDTH 8 0
BBX 7 7 0 0
BITMAP
82
82
82
82
48
58
10
ENDCHAR
STARTCHAR 0057
ENCODING 87
SWIDTH 720 0
DWIDTH 8 0
BBX 7 7 0 0
BITMAP
82
92
92
92
92
DA
48
ENDCHAR
STARTCHAR 0058
ENCODING 88
SWIDTH 720 0
DWIDTH 8 0
BBX 7 7 0 0
BITMAP
82
CA
58
10
48
CA
82
ENDCHAR
STARTCHAR 0059
ENCODING 89
SWIDTH 720 0
DWIDTH 8 0
BBX 7 7 0 0
BITMAP
82
82
CA
48
10
10
10
ENDCHAR
STARTCHAR 005A
ENCODING 90
SWIDTH 720 0
DWIDTH 8 0
BBX 7 7 0 0
BITMAP
FE
FE
18
10
20
FE
FE
ENDCHAR
STARTCHAR 005B
ENCODING 91
SWIDTH 360 0
DWIDTH 4 0
BBX 3 9 0 -2
BITMAP
E0
E0
80
80
80
80
80
E0
E0
ENDCHAR
STARTCHAR 005C
ENCODING 92
SWIDTH 450 0
DWIDTH 5 0
BBX 4 7 0 0
BITMAP
80
80
C0
40
30
30
30
ENDCHAR
STARTCHAR 005D
ENCODING 93
SWIDTH 450 0
DWIDTH 5 0
BBX 3 9 0 -2
BITMAP
E0
E0
20
20
20
20
20
E0
E0
ENDCHAR
STARTCHAR 005E
ENCODING 94
SWIDTH 450 0
DWIDTH 5 0
BBX 4 3 0 6
BITMAP
40
F0
B0
ENDCHAR
STARTCHAR 005F
ENCODING 95
SWIDTH 720 0
DWIDTH 8 0
BBX 7 2 0 -1
BITMAP
FE
FE
ENDCHAR
STARTCHAR 0060
ENCODING 96
SWIDTH 270 0
DWIDTH 3 0
BBX 2 3 0 6
BITMAP
80
C0
40
ENDCHAR
STARTCHAR 0061
ENCODING 97
SWIDTH 540 0
DWIDTH 6 0
BBX 5 6 0 0
BITMAP
78
F8
88
88
F8
F8
ENDCHAR
STARTCHAR 0062
ENCODING 98
SWIDTH 540 0
DWIDTH 6 0
BBX 5 7 0 0
BITMAP
80
F0
F8
88
88
F0
F0
ENDCHAR
STARTCHAR 0063
ENCODING 99
SWIDTH 540 0
DWIDTH 6 0
BBX 5 6 0 0
BITMAP
78
F8
80
80
78
78
ENDCHAR
STARTCHAR 0064
ENCODING 100
SWIDTH 540 0
DWIDTH 6 0
BBX 5 7 0 0
BITMAP
08
78
F8
88
88
78
78
ENDCHAR
STARTCHAR 0065
ENCODING 101
SWIDTH 540 0
DWIDTH 6 0
BBX 5 6 0 0
BITMAP
70
F8
F8
F0
78
78
ENDCHAR
STARTCHAR 0066
ENCODING 102
SWIDTH 630 0
DWIDTH 7 0
BBX 6 7 0 0
BITMAP
1C
3C
FC
FC
20
20
20
ENDCHAR
STARTCHAR 0067
ENCODING 103
SWIDTH 540 0
DWIDTH 6 0
BBX 5 9 0 -3
BITMAP
78
F8
88
88
F8
F8
08
F8
F0
ENDCHAR
STARTCHAR 0068
ENCODING 104
SWIDTH 540 0
DWIDTH 6 0
BBX 5 7 0 0
BITMAP
80
F0
F8
88
88
88
88
ENDCHAR
STARTCHAR 0069
ENCODING 105
SWIDTH 270 0
DWIDTH 3 0
BBX 1 7 0 0
BITMAP
80
80
80
80
80
80
80
ENDCHAR
STARTCHAR 006A
ENCODING 106
SWIDTH 270 0
DWIDTH 3 0
BBX 2 10 0 -3
BITMAP
40
40
40
40
40
40
40
40
80
80
ENDCHAR
STARTCHAR 006B
ENCODING 107
SWIDTH 540 0
DWIDTH 6 0
BBX 5 7 0 0
BITMAP
80
88
98
90
F0
F8
88
ENDCHAR
STARTCHAR 006C
ENCODING 108
SWIDTH 270 0
DWIDTH 3 0
BBX 1 7 0 0
BITMAP
80
80
80
80
80
80
80
ENDCHAR
STARTCHAR 006D
ENCODING 109
SWIDTH 810 0
DWIDTH 9 0
BBX 8 6 0 0
BITMAP
92
FB
E9
89
89
89
ENDCHAR
STARTCHAR 006E
ENCODING 110
SWIDTH 540 0
DWIDTH 6 0
BBX 5 6 0 0
BITMAP
90
F8
E8
88
88
88
ENDCHAR
STARTCHAR 006F
ENCODING 111
SWIDTH 540 0
DWIDTH 6 0
BBX 5 6 0 0
BITMAP
70
F8
88
88
70
70
ENDCHAR
STARTCHAR 0070
ENCODING 112
SWIDTH 540 0
DWIDTH 6 0
BBX 5 9 0 -3
BITMAP
F0
F8
88
88
F0
F0
80
80
80
ENDCHAR
STARTCHAR 0071
ENCODING 113
SWIDTH 540 0
DWIDTH 6 0
BBX 5 9 0 -3
BITMAP
78
F8
88
88
78
78
08
08
08
ENDCHAR
STARTCHAR 0072
ENCODING 114
SWIDTH 540 0
DWIDTH 6 0
BBX 5 6 0 0
BITMAP
98
F8
E0
80
80
80
ENDCHAR
STARTCHAR 0073
ENCODING 115
SWIDTH 540 0
DWIDTH 6 0
BBX 5 6 0 0
BITMAP
78
F8
E0
18
F8
F0
ENDCHAR
STARTCHAR 0074
ENCODING 116
SWIDTH 630 0
DWIDTH 7 0
BBX 6 7 0 0
BITMAP
20
FC
FC
20
20
3C
1C
ENDCHAR
STARTCHAR 0075
ENCODING 117
SWIDTH 540 0
DWIDTH 6 0
BBX 5 6 0 0
BITMAP
88
88
88
88
78
78
ENDCHAR
STARTCHAR 0076
ENCODING 118
SWIDTH 720 0
DWIDTH 8 0
BBX 7 6 0 0
BITMAP
82
82
82
48
58
10
ENDCHAR
STARTCHAR 0077
ENCODING 119
SWIDTH 720 0
DWIDTH 8 0
BBX 7 6 0 0
BITMAP
82
82
92
92
48
48
ENDCHAR
STARTCHAR 0078
ENCODING 120
SWIDTH 540 0
DWIDTH 6 0
BBX 5 6 0 0
BITMAP
88
F8
70
70
88
88
ENDCHAR
STARTCHAR 0079
ENCODING 121
SWIDTH 540 0
DWIDTH 6 0
BBX 5 9 0 -3
BITMAP
88
88
88
88
78
78
08
F0
F0
ENDCHAR
STARTCHAR 007A
ENCODING 122
SWIDTH 630 0
DWIDTH 7 0
BBX 6 6 0 0
BITMAP
FC
FC
10
20
FC
FC
ENDCHAR
STARTCHAR 007B
ENCODING 123
SWIDTH 450 0
DWIDTH 5 0
BBX 4 9 0 -2
BITMAP
70
70
40
80
80
C0
40
70
70
ENDCHAR
STARTCHAR 007C
ENCODING 124
SWIDTH 270 0
DWIDTH 3 0
BBX 1 9 0 -2
BITMAP
80
80
80
80
80
80
80
80
80
ENDCHAR
STARTCHAR 007D
ENCODING 125
SWIDTH 450 0
DWIDTH 5 0
BBX 4 9 0 -2
BITMAP
E0
E0
20
10
10
30
20
E0
E0
ENDCHAR
STARTCHAR 007E
ENCODING 126
SWIDTH 720 0
DWIDTH 8 0
BBX 7 5 0 2
BITMAP
40
40
92
9A
08
ENDCHAR
STARTCHAR 00A1
ENCODING 161
SWIDTH 270 0
DWIDTH 3 0
BBX 1 11 0 -1
BITMAP
80
80
00
00
80
80
80
80
80
80
80
ENDCHAR
STARTCHAR 00A2
ENCODING 162
SWIDTH 450 0
DWIDTH 5 0
BBX 4 7 0 0
BITMAP
40
F0
F0
80
F0
F0
40
ENDCHAR
STARTCHAR 00A3
ENCODING 163
SWIDTH 720 0
DWIDTH 8 0
BBX 7 9 0 0
BITMAP
78
78
82
C2
F2
F0
40
FE
FE
ENDCHAR
STARTCHAR 00A4
ENCODING 164
SWIDTH 720 0
DWIDTH 8 0
BBX 7 7 0 0
BITMAP
82
FA
78
48
78
FA
82
ENDCHAR
STARTCHAR 00A5
ENCODING 165
SWIDTH 720 0
DWIDTH 8 0
BBX 7 9 0 0
BITMAP
82
82
48
58
7C
10
7C
10
10
ENDCHAR
STARTCHAR 00A6
ENCODING 166
SWIDTH 270 0
DWIDTH 3 0
BBX 1 7 0 0
BITMAP
80
80
80
00
80
80
80
ENDCHAR
STARTCHAR 00A7
ENCODING 167
SWIDTH 540 0
DWIDTH 6 0
BBX 5 10 0 -3
BITMAP
78
F8
F0
70
88
F8
70
08
F8
F0
ENDCHAR
STARTCHAR 00A8
ENCODING 168
SWIDTH 450 0
DWIDTH 5 0
BBX 4 2 0 9
BITMAP
90
90
ENDCHAR
STARTCHAR 00A9
ENCODING 169
SWIDTH 900 0
DWIDTH 10 0
BBX 9 11 0 -1
BITMAP
7F00
7F00
8080
9E80
9E80
9080
9E80
9E80
8080
7F00
7F00
ENDCHAR
STARTCHAR 00AA
ENCODING 170
SWIDTH 450 0
DWIDTH 5 0
BBX 4 5 0 6
BITMAP
70
90
F0
90
70
ENDCHAR
STARTCHAR 00AB
ENCODING 171
SWIDTH 810 0
DWIDTH 9 0
BBX 8 7 0 0
BITMAP
11
53
CA
88
42
53
11
ENDCHAR
STARTCHAR 00AC
ENCODING 172
SWIDTH 810 0
DWIDTH 9 0
BBX 7 5 0 2
BITMAP
FE
FE
02
02
02
ENDCHAR
STARTCHAR 00AD
ENCODING 173
SWIDTH 540 0
DWIDTH 6 0
BBX 4 2 1 3
BITMAP
F0
F0
ENDCHAR
STARTCHAR 00AE
ENCODING 174
SWIDTH 900 0
DWIDTH 10 0
BBX 9 11 0 -1
BITMAP
7F00
7F00
8080
9E80
9E80
9C80
9E80
9280
8080
7F00
7F00
ENDCHAR
STARTCHAR 00AF
ENCODING 175
SWIDTH 720 0
DWIDTH 8 0
BBX 7 2 0 9
BITMAP
FE
FE
ENDCHAR
STARTCHAR 00B0
ENCODING 176
SWIDTH 540 0
DWIDTH 6 0
BBX 5 6 0 5
BITMAP
70
70
88
88
F8
70
ENDCHAR
STARTCHAR 00B1
ENCODING 177
SWIDTH 540 0
DWIDTH 6 0
BBX 4 7 1 0
BITMAP
20
F0
F0
20
00
F0
F0
ENDCHAR
STARTCHAR 00B2
ENCODING 178
SWIDTH 540 0
DWIDTH 6 0
BBX 5 7 0 3
BITMAP
70
00
88
10
40
40
F8
ENDCHAR
STARTCHAR 00B3
ENCODING 179
SWIDTH 540 0
DWIDTH 6 0
BBX 5 7 0 3
BITMAP
F0
00
08
70
08
00
F0
ENDCHAR
STARTCHAR 00B4
ENCODING 180
SWIDTH 270 0
DWIDTH 3 0
BBX 2 3 0 7
BITMAP
40
C0
80
ENDCHAR
STARTCHAR 00B5
ENCODING 181
SWIDTH 720 0
DWIDTH 8 0
BBX 7 9 0 -3
BITMAP
82
82
82
EE
FE
92
80
80
80
ENDCHAR
STARTCHAR 00B6
ENCODING 182
SWIDTH 900 0
DWIDTH 10 0
BBX 9 10 0 -3
BITMAP
3F80
FF80
FA00
FA00
3A00
0A00
0A00
0A00
0A00
0A00
ENDCHAR
STARTCHAR 00B7
ENCODING 183
SWIDTH 540 0
DWIDTH 6 0
BBX 4 4 1 2
BITMAP
F0
F0
F0
F0
ENDCHAR
STARTCHAR 00B8
ENCODING 184
SWIDTH 540 0
DWIDTH 6 0
BBX 4 5 1 -3
BITMAP
20
20
10
F0
F0
ENDCHAR
STARTCHAR 00B9
ENCODING 185
SWIDTH 450 0
DWIDTH 5 0
BBX 3 7 0 3
BITMAP
20
20
E0
20
20
20
20
ENDCHAR
STARTCHAR 00BA
ENCODING 186
SWIDTH 540 0
DWIDTH 6 0
BBX 5 7 0 3
BITMAP
70
00
88
88
88
88
70
ENDCHAR
STARTCHAR 00BB
ENCODING 187
SWIDTH 810 0
DWIDTH 9 0
BBX 8 7 0 0
BITMAP
88
CA
53
11
42
CA
88
ENDCHAR
STARTCHAR 00BC
ENCODING 188
SWIDTH 900 0
DWIDTH 10 0
BBX 9 13 0 -3
BITMAP
4080
4080
C100
C300
4200
4800
5980
1180
4280
C380
8380
0080
0080
ENDCHAR
STARTCHAR 00BD
ENCODING 189
SWIDTH 900 0
DWIDTH 10 0
BBX 9 12 0 -3
BITMAP
4080
C180
C100
4200
4A00
4800
1300
5380
4080
8100
8380
0380
ENDCHAR
STARTCHAR 00BE
ENCODING 190
SWIDTH 900 0
DWIDTH 10 0
BBX 9 13 0 -3
BITMAP
F080
F080
4100
5300
1200
C800
D980
1180
4280
C380
8380
0080
0080
ENDCHAR
STARTCHAR 00BF
ENCODING 191
SWIDTH 720 0
DWIDTH 8 0
BBX 7 11 0 -2
BITMAP
10
10
00
10
10
10
42
C2
82
78
78
ENDCHAR
STARTCHAR 00C0
ENCODING 192
SWIDTH 720 0
DWIDTH 8 0
BBX 7 12 0 0
BITMAP
40
50
10
00
00
78
FA
82
82
FE
FE
82
ENDCHAR
STARTCHAR 00C1
ENCODING 193
SWIDTH 720 0
DWIDTH 8 0
BBX 7 12 0 0
BITMAP
08
18
10
00
00
78
FA
82
82
FE
FE
82
ENDCHAR
STARTCHAR 00C2
ENCODING 194
SWIDTH 720 0
DWIDTH 8 0
BBX 7 12 0 0
BITMAP
10
58
48
00
00
78
FA
82
82
FE
FE
82
ENDCHAR
STARTCHAR 00C3
ENCODING 195
SWIDTH 720 0
DWIDTH 8 0
BBX 7 12 0 0
BITMAP
12
5A
48
00
00
78
FA
82
82
FE
FE
82
ENDCHAR
STARTCHAR 00C4
ENCODING 196
SWIDTH 720 0
DWIDTH 8 0
BBX 7 11 0 0
BITMAP
48
48
00
00
78
FA
82
82
FE
FE
82
ENDCHAR
STARTCHAR 00C5
ENCODING 197
SWIDTH 720 0
DWIDTH 8 0
BBX 7 12 0 0
BITMAP
10
58
48
10
10
78
FA
82
82
FE
FE
82
ENDCHAR
STARTCHAR 00C6
ENCODING 198
SWIDTH 1260 0
DWIDTH 14 0
BBX 13 7 0 0
BITMAP
3FF8
7FF8
C3E0
83E0
FE00
FFF8
83F8
ENDCHAR
STARTCHAR 00C7
ENCODING 199
SWIDTH 720 0
DWIDTH 8 0
BBX 7 10 0 -3
BITMAP
78
FA
82
80
82
FA
78
08
78
78
ENDCHAR
STARTCHAR 00C8
ENCODING 200
SWIDTH 720 0
DWIDTH 8 0
BBX 7 12 0 0
BITMAP
40
50
10
00
00
FE
FE
F8
F8
80
FE
FE
ENDCHAR
STARTCHAR 00C9
ENCODING 201
SWIDTH 720 0
DWIDTH 8 0
BBX 7 12 0 0
BITMAP
08
18
10
00
00
FE
FE
F8
F8
80
FE
FE
ENDCHAR
STARTCHAR 00CA
ENCODING 202
SWIDTH 720 0
DWIDTH 8 0
BBX 7 12 0 0
BITMAP
10
58
48
00
00
FE
FE
F8
F8
80
FE
FE
ENDCHAR
STARTCHAR 00CB
ENCODING 203
SWIDTH 720 0
DWIDTH 8 0
BBX 7 11 0 0
BITMAP
48
48
00
00
FE
FE
F8
F8
80
FE
FE
ENDCHAR
STARTCHAR 00CC
ENCODING 204
SWIDTH 450 0
DWIDTH 5 0
BBX 4 12 0 0
BITMAP
80
C0
40
00
00
F0
F0
40
40
40
F0
F0
ENDCHAR
STARTCHAR 00CD
ENCODING 205
SWIDTH 450 0
DWIDTH 5 0
BBX 4 12 0 0
BITMAP
10
30
20
00
00
F0
F0
20
20
20
F0
F0
ENDCHAR
STARTCHAR 00CE
ENCODING 206
SWIDTH 450 0
DWIDTH 5 0
BBX 4 12 0 0
BITMAP
40
F0
B0
00
00
F0
F0
40
40
40
F0
F0
ENDCHAR
STARTCHAR 00CF
ENCODING 207
SWIDTH 450 0
DWIDTH 5 0
BBX 4 11 0 0
BITMAP
B0
B0
00
00
F0
F0
40
40
40
F0
F0
ENDCHAR
STARTCHAR 00D0
ENCODING 208
SWIDTH 720 0
DWIDTH 8 0
BBX 7 7 0 0
BITMAP
3C
3E
F2
F2
22
3C
3C
ENDCHAR
STARTCHAR 00D1
ENCODING 209
SWIDTH 720 0
DWIDTH 8 0
BBX 7 12 0 0
BITMAP
12
5A
48
00
00
82
C2
D2
92
8E
8E
82
ENDCHAR
STARTCHAR 00D2
ENCODING 210
SWIDTH 720 0
DWIDTH 8 0
BBX 7 12 0 0
BITMAP
40
50
10
00
00
78
FA
82
82
82
78
78
ENDCHAR
STARTCHAR 00D3
ENCODING 211
SWIDTH 720 0
DWIDTH 8 0
BBX 7 12 0 0
BITMAP
08
18
10
00
00
78
FA
82
82
82
78
78
ENDCHAR
STARTCHAR 00D4
ENCODING 212
SWIDTH 720 0
DWIDTH 8 0
BBX 7 12 0 0
BITMAP
10
58
48
00
00
78
FA
82
82
82
78
78
ENDCHAR
STARTCHAR 00D5
ENCODING 213
SWIDTH 720 0
DWIDTH 8 0
BBX 7 12 0 0
BITMAP
40
D2
92
08
08
78
FA
82
82
82
78
78
ENDCHAR
STARTCHAR 00D6
ENCODING 214
SWIDTH 720 0
DWIDTH 8 0
BBX 7 11 0 0
BITMAP
48
48
00
00
78
FA
82
82
82
78
78
ENDCHAR
STARTCHAR 00D7
ENCODING 215
SWIDTH 450 0
DWIDTH 5 0
BBX 4 5 0 1
BITMAP
B0
F0
40
B0
B0
ENDCHAR
STARTCHAR 00D8
ENCODING 216
SWIDTH 720 0
DWIDTH 8 0
BBX 7 7 0 0
BITMAP
7E
FE
9E
92
E2
FE
FC
ENDCHAR
STARTCHAR 00D9
ENCODING 217
SWIDTH 720 0
DWIDTH 8 0
BBX 7 12 0 0
BITMAP
40
50
10
00
00
82
82
82
82
82
FA
78
ENDCHAR
STARTCHAR 00DA
ENCODING 218
SWIDTH 720 0
DWIDTH 8 0
BBX 7 12 0 0
BITMAP
08
18
10
00
00
82
82
82
82
82
FA
78
ENDCHAR
STARTCHAR 00DB
ENCODING 219
SWIDTH 720 0
DWIDTH 8 0
BBX 7 12 0 0
BITMAP
10
58
48
00
00
82
82
82
82
82
FA
78
ENDCHAR
STARTCHAR 00DC
ENCODING 220
SWIDTH 720 0
DWIDTH 8 0
BBX 7 11 0 0
BITMAP
48
48
00
00
82
82
82
82
82
FA
78
ENDCHAR
STARTCHAR 00DD
ENCODING 221
SWIDTH 720 0
DWIDTH 8 0
BBX 7 12 0 0
BITMAP
08
18
10
00
00
82
82
CA
48
10
10
10
ENDCHAR
STARTCHAR 00DE
ENCODING 222
SWIDTH 720 0
DWIDTH 8 0
BBX 7 7 0 0
BITMAP
80
FC
FE
82
FC
FC
80
ENDCHAR
STARTCHAR 00DF
ENCODING 223
SWIDTH 540 0
DWIDTH 6 0
BBX 5 7 0 0
BITMAP
70
F8
98
90
88
98
90
ENDCHAR
STARTCHAR 00E0
ENCODING 224
SWIDTH 540 0
DWIDTH 6 0
BBX 5 11 0 0
BITMAP
40
40
10
10
00
78
F8
88
88
F8
F8
ENDCHAR
STARTCHAR 00E1
ENCODING 225
SWIDTH 540 0
DWIDTH 6 0
BBX 5 11 0 0
BITMAP
10
10
40
40
00
78
F8
88
88
F8
F8
ENDCHAR
STARTCHAR 00E2
ENCODING 226
SWIDTH 540 0
DWIDTH 6 0
BBX 5 11 0 0
BITMAP
10
10
48
48
00
78
F8
88
88
F8
F8
ENDCHAR
STARTCHAR 00E3
ENCODING 227
SWIDTH 540 0
DWIDTH 6 0
BBX 5 11 0 0
BITMAP
48
48
90
90
00
78
F8
88
88
F8
F8
ENDCHAR
STARTCHAR 00E4
ENCODING 228
SWIDTH 540 0
DWIDTH 6 0
BBX 5 9 0 0
BITMAP
48
48
00
78
F8
88
88
F8
F8
ENDCHAR
STARTCHAR 00E5
ENCODING 229
SWIDTH 540 0
DWIDTH 6 0
BBX 5 11 0 0
BITMAP
10
10
48
48
10
78
F8
88
88
F8
F8
ENDCHAR
STARTCHAR 00E6
ENCODING 230
SWIDTH 900 0
DWIDTH 10 0
BBX 9 7 0 0
BITMAP
F700
FF80
7F80
7F80
8800
F780
F780
ENDCHAR
STARTCHAR 00E7
ENCODING 231
SWIDTH 540 0
DWIDTH 6 0
BBX 5 9 0 -3
BITMAP
78
F8
80
80
78
78
10
70
70
ENDCHAR
STARTCHAR 00E8
ENCODING 232
SWIDTH 540 0
DWIDTH 6 0
BBX 5 11 0 0
BITMAP
40
40
10
10
00
70
F8
F8
F0
78
78
ENDCHAR
STARTCHAR 00E9
ENCODING 233
SWIDTH 540 0
DWIDTH 6 0
BBX 5 11 0 0
BITMAP
10
10
40
40
00
70
F8
F8
F0
78
78
ENDCHAR
STARTCHAR 00EA
ENCODING 234
SWIDTH 540 0
DWIDTH 6 0
BBX 5 11 0 0
BITMAP
10
10
48
48
00
70
F8
F8
F0
78
78
ENDCHAR
STARTCHAR 00EB
ENCODING 235
SWIDTH 540 0
DWIDTH 6 0
BBX 5 9 0 0
BITMAP
48
48
00
70
F8
F8
F0
78
78
ENDCHAR
STARTCHAR 00EC
ENCODING 236
SWIDTH 270 0
DWIDTH 3 0
BBX 2 11 0 0
BITMAP
80
80
40
40
00
40
40
40
40
40
40
ENDCHAR
STARTCHAR 00ED
ENCODING 237
SWIDTH 270 0
DWIDTH 3 0
BBX 2 11 0 0
BITMAP
40
40
80
80
00
80
80
80
80
80
80
ENDCHAR
STARTCHAR 00EE
ENCODING 238
SWIDTH 450 0
DWIDTH 5 0
BBX 4 11 0 0
BITMAP
40
40
B0
B0
00
40
40
40
40
40
40
ENDCHAR
STARTCHAR 00EF
ENCODING 239
SWIDTH 450 0
DWIDTH 5 0
BBX 4 9 0 0
BITMAP
B0
B0
00
40
40
40
40
40
40
ENDCHAR
STARTCHAR 00F0
ENCODING 240
SWIDTH 540 0
DWIDTH 6 0
BBX 5 9 0 0
BITMAP
40
40
10
78
F8
88
88
70
70
ENDCHAR
STARTCHAR 00F1
ENCODING 241
SWIDTH 540 0
DWIDTH 6 0
BBX 5 11 0 0
BITMAP
48
48
90
90
00
90
D8
C8
88
88
88
ENDCHAR
STARTCHAR 00F2
ENCODING 242
SWIDTH 540 0
DWIDTH 6 0
BBX 5 11 0 0
BITMAP
40
40
10
10
00
70
F8
88
88
70
70
ENDCHAR
STARTCHAR 00F3
ENCODING 243
SWIDTH 540 0
DWIDTH 6 0
BBX 5 11 0 0
BITMAP
10
10
40
40
00
70
F8
88
88
70
70
ENDCHAR
STARTCHAR 00F4
ENCODING 244
SWIDTH 540 0
DWIDTH 6 0
BBX 5 11 0 0
BITMAP
70
70
88
88
00
70
F8
88
88
70
70
ENDCHAR
STARTCHAR 00F5
ENCODING 245
SWIDTH 540 0
DWIDTH 6 0
BBX 5 11 0 0
BITMAP
48
48
90
90
00
70
F8
88
88
70
70
ENDCHAR
STARTCHAR 00F6
ENCODING 246
SWIDTH 540 0
DWIDTH 6 0
BBX 5 9 0 0
BITMAP
48
48
00
70
F8
88
88
70
70
ENDCHAR
STARTCHAR 00F7
ENCODING 247
SWIDTH 720 0
DWIDTH 8 0
BBX 7 7 0 0
BITMAP
10
10
FE
FE
00
10
10
ENDCHAR
STARTCHAR 00F8
ENCODING 248
SWIDTH 540 0
DWIDTH 6 0
BBX 5 6 0 0
BITMAP
78
F8
98
E8
F8
F0
ENDCHAR
STARTCHAR 00F9
ENCODING 249
SWIDTH 540 0
DWIDTH 6 0
BBX 5 11 0 0
BITMAP
40
40
10
10
00
88
88
88
88
78
78
ENDCHAR
STARTCHAR 00FA
ENCODING 250
SWIDTH 540 0
DWIDTH 6 0
BBX 5 11 0 0
BITMAP
10
10
40
40
00
88
88
88
88
78
78
ENDCHAR
STARTCHAR 00FB
ENCODING 251
SWIDTH 540 0
DWIDTH 6 0
BBX 5 11 0 0
BITMAP
10
10
48
48
00
88
88
88
88
78
78
ENDCHAR
STARTCHAR 00FC
ENCODING 252
SWIDTH 540 0
DWIDTH 6 0
BBX 5 9 0 0
BITMAP
48
48
00
88
88
88
88
78
78
ENDCHAR
STARTCHAR 00FD
ENCODING 253
SWIDTH 540 0
DWIDTH 6 0
BBX 5 12 0 -3
BITMAP
10
10
40
40
88
88
88
78
78
08
F0
F0
ENDCHAR
STARTCHAR 00FE
ENCODING 254
SWIDTH 540 0
DWIDTH 6 0
BBX 5 9 0 -3
BITMAP
80
F0
F0
88
88
88
F0
F0
80
ENDCHAR
STARTCHAR 00FF
ENCODING 255
SWIDTH 540 0
DWIDTH 6 0
BBX 5 10 0 -3
BITMAP
48
48
88
88
88
78
78
08
F0
F0
ENDCHAR
STARTCHAR 0152
ENCODING 338
SWIDTH 1080 0
DWIDTH 12 0
BBX 11 7 0 0
BITMAP
77E0
FFE0
8FE0
87E0
8E00
FFE0
77E0
ENDCHAR
STARTCHAR 0153
ENCODING 339
SWIDTH 990 0
DWIDTH 11 0
BBX 9 6 0 0
BITMAP
7700
FF80
8F80
8800
7780
7780
ENDCHAR
STARTCHAR 0178
ENCODING 376
SWIDTH 720 0
DWIDTH 8 0
BBX 7 11 0 0
BITMAP
48
48
00
00
82
82
CA
48
10
10
10
ENDCHAR
STARTCHAR 018F
ENCODING 399
SWIDTH 720 0
DWIDTH 8 0
BBX 7 7 0 0
BITMAP
F8
FA
FE
FE
82
78
78
ENDCHAR
STARTCHAR 0192
ENCODING 402
SWIDTH 720 0
DWIDTH 8 0
BBX 7 10 0 -3
BITMAP
0E
1E
78
78
10
10
10
10
E0
E0
ENDCHAR
STARTCHAR 0391
ENCODING 913
SWIDTH 720 0
DWIDTH 8 0
BBX 7 7 0 0
BITMAP
78
FA
82
82
FE
FE
82
ENDCHAR
STARTCHAR 0392
ENCODING 914
SWIDTH 720 0
DWIDTH 8 0
BBX 7 7 0 0
BITMAP
FC
FE
FE
FC
82
FE
FC
ENDCHAR
STARTCHAR 0393
ENCODING 915
SWIDTH 630 0
DWIDTH 7 0
BBX 5 7 0 0
BITMAP
F8
F8
80
80
80
80
80
ENDCHAR
STARTCHAR 0394
ENCODING 916
SWIDTH 720 0
DWIDTH 8 0
BBX 7 7 0 0
BITMAP
10
58
48
48
82
FE
FE
ENDCHAR
STARTCHAR 0395
ENCODING 917
SWIDTH 720 0
DWIDTH 8 0
BBX 7 7 0 0
BITMAP
FE
FE
FE
FE
80
FE
FE
ENDCHAR
STARTCHAR 0396
ENCODING 918
SWIDTH 720 0
DWIDTH 8 0
BBX 7 7 0 0
BITMAP
FE
FE
18
10
20
FE
FE
ENDCHAR
STARTCHAR 0397
ENCODING 919
SWIDTH 720 0
DWIDTH 8 0
BBX 7 7 0 0
BITMAP
82
82
FE
FE
82
82
82
ENDCHAR
STARTCHAR 0398
ENCODING 920
SWIDTH 720 0
DWIDTH 8 0
BBX 7 7 0 0
BITMAP
78
FA
BA
BA
82
78
78
ENDCHAR
STARTCHAR 0399
ENCODING 921
SWIDTH 270 0
DWIDTH 3 0
BBX 1 7 0 0
BITMAP
80
80
80
80
80
80
80
ENDCHAR
STARTCHAR 039A
ENCODING 922
SWIDTH 720 0
DWIDTH 8 0
BBX 7 7 0 0
BITMAP
82
8A
98
90
E8
EA
82
ENDCHAR
STARTCHAR 039B
ENCODING 923
SWIDTH 720 0
DWIDTH 8 0
BBX 7 7 0 0
BITMAP
10
58
48
48
82
82
82
ENDCHAR
STARTCHAR 039C
ENCODING 924
SWIDTH 720 0
DWIDTH 8 0
BBX 7 7 0 0
BITMAP
82
EE
FE
92
82
82
82
ENDCHAR
STARTCHAR 039D
ENCODING 925
SWIDTH 720 0
DWIDTH 8 0
BBX 7 7 0 0
BITMAP
82
E2
F2
92
8E
8E
82
ENDCHAR
STARTCHAR 039E
ENCODING 926
SWIDTH 720 0
DWIDTH 8 0
BBX 7 7 0 0
BITMAP
FE
FE
78
78
00
FE
FE
ENDCHAR
STARTCHAR 039F
ENCODING 927
SWIDTH 720 0
DWIDTH 8 0
BBX 7 7 0 0
BITMAP
78
FA
82
82
82
78
78
ENDCHAR
STARTCHAR 03A0
ENCODING 928
SWIDTH 720 0
DWIDTH 8 0
BBX 7 7 0 0
BITMAP
FE
FE
82
82
82
82
82
ENDCHAR
STARTCHAR 03A1
ENCODING 929
SWIDTH 720 0
DWIDTH 8 0
BBX 7 7 0 0
BITMAP
FC
FE
FE
FC
80
80
80
ENDCHAR
STARTCHAR 03A3
ENCODING 931
SWIDTH 720 0
DWIDTH 8 0
BBX 7 7 0 0
BITMAP
FE
FE
30
10
20
FE
FE
ENDCHAR
STARTCHAR 03A4
ENCODING 932
SWIDTH 720 0
DWIDTH 8 0
BBX 7 7 0 0
BITMAP
FE
FE
10
10
10
10
10
ENDCHAR
STARTCHAR 03A5
ENCODING 933
SWIDTH 720 0
DWIDTH 8 0
BBX 7 7 0 0
BITMAP
82
CA
58
10
10
10
10
ENDCHAR
STARTCHAR 03A6
ENCODING 934
SWIDTH 720 0
DWIDTH 8 0
BBX 7 7 0 0
BITMAP
10
78
FA
92
78
78
10
ENDCHAR
STARTCHAR 03A7
ENCODING 935
SWIDTH 720 0
DWIDTH 8 0
BBX 7 7 0 0
BITMAP
82
CA
58
10
48
CA
82
ENDCHAR
STARTCHAR 03A8
ENCODING 936
SWIDTH 720 0
DWIDTH 8 0
BBX 7 7 0 0
BITMAP
92
92
92
92
78
78
10
ENDCHAR
STARTCHAR 03A9
ENCODING 937
SWIDTH 720 0
DWIDTH 8 0
BBX 7 7 0 0
BITMAP
78
FA
82
82
48
CE
CE
ENDCHAR
STARTCHAR 03B1
ENCODING 945
SWIDTH 720 0
DWIDTH 8 0
BBX 7 6 0 0
BITMAP
72
FA
88
88
72
72
ENDCHAR
STARTCHAR 03B2
ENCODING 946
SWIDTH 540 0
DWIDTH 6 0
BBX 5 9 0 -3
BITMAP
70
F0
90
88
F8
F8
80
80
80
ENDCHAR
STARTCHAR 03B3
ENCODING 947
SWIDTH 720 0
DWIDTH 8 0
BBX 7 9 0 -3
BITMAP
82
CA
48
48
10
10
10
10
10
ENDCHAR
STARTCHAR 03B4
ENCODING 948
SWIDTH 540 0
DWIDTH 6 0
BBX 5 9 0 0
BITMAP
F8
F8
40
70
F8
88
88
70
70
ENDCHAR
STARTCHAR 03B5
ENCODING 949
SWIDTH 630 0
DWIDTH 7 0
BBX 5 7 0 0
BITMAP
78
F8
F0
70
80
F8
78
ENDCHAR
STARTCHAR 03B6
ENCODING 950
SWIDTH 450 0
DWIDTH 5 0
BBX 4 10 0 -3
BITMAP
F0
F0
80
80
80
40
40
30
70
40
ENDCHAR
STARTCHAR 03B7
ENCODING 951
SWIDTH 540 0
DWIDTH 6 0
BBX 5 9 0 -3
BITMAP
90
F8
E8
88
88
88
08
08
08
ENDCHAR
STARTCHAR 03B8
ENCODING 952
SWIDTH 450 0
DWIDTH 5 0
BBX 4 7 0 0
BITMAP
40
F0
F0
F0
B0
40
40
ENDCHAR
STARTCHAR 03B9
ENCODING 953
SWIDTH 270 0
DWIDTH 3 0
BBX 1 6 0 0
BITMAP
80
80
80
80
80
80
ENDCHAR
STARTCHAR 03BA
ENCODING 954
SWIDTH 540 0
DWIDTH 6 0
BBX 5 6 0 0
BITMAP
88
98
90
F0
F8
88
ENDCHAR
STARTCHAR 03BB
ENCODING 955
SWIDTH 540 0
DWIDTH 6 0
BBX 5 7 0 0
BITMAP
40
50
70
70
48
88
88
ENDCHAR
STARTCHAR 03BC
ENCODING 956
SWIDTH 720 0
DWIDTH 8 0
BBX 7 9 0 -3
BITMAP
82
82
82
EE
FE
92
80
80
80
ENDCHAR
STARTCHAR 03BD
ENCODING 957
SWIDTH 720 0
DWIDTH 8 0
BBX 7 6 0 0
BITMAP
82
CA
48
48
10
10
ENDCHAR
STARTCHAR 03BE
ENCODING 958
SWIDTH 450 0
DWIDTH 5 0
BBX 4 12 0 -3
BITMAP
40
40
80
C0
C0
80
80
40
40
30
70
40
ENDCHAR
STARTCHAR 03BF
ENCODING 959
SWIDTH 540 0
DWIDTH 6 0
BBX 5 6 0 0
BITMAP
70
F8
88
88
70
70
ENDCHAR
STARTCHAR 03C0
ENCODING 960
SWIDTH 720 0
DWIDTH 8 0
BBX 7 6 0 0
BITMAP
FE
FE
24
24
24
24
ENDCHAR
STARTCHAR 03C1
ENCODING 961
SWIDTH 540 0
DWIDTH 6 0
BBX 5 9 0 -3
BITMAP
70
F8
88
88
F0
F0
80
80
80
ENDCHAR
STARTCHAR 03C2
ENCODING 962
SWIDTH 450 0
DWIDTH 5 0
BBX 4 9 0 -3
BITMAP
70
F0
80
80
70
70
30
70
40
ENDCHAR
STARTCHAR 03C3
ENCODING 963
SWIDTH 540 0
DWIDTH 6 0
BBX 5 6 0 0
BITMAP
78
F8
88
88
70
70
ENDCHAR
STARTCHAR 03C4
ENCODING 964
SWIDTH 450 0
DWIDTH 5 0
BBX 4 6 0 0
BITMAP
F0
F0
20
20
20
20
ENDCHAR
STARTCHAR 03C5
ENCODING 965
SWIDTH 450 0
DWIDTH 5 0
BBX 4 6 0 0
BITMAP
B0
B0
B0
B0
40
40
ENDCHAR
STARTCHAR 03C6
ENCODING 966
SWIDTH 720 0
DWIDTH 8 0
BBX 7 9 0 -3
BITMAP
98
9A
92
92
78
78
10
10
10
ENDCHAR
STARTCHAR 03C7
ENCODING 967
SWIDTH 540 0
DWIDTH 6 0
BBX 5 9 0 -3
BITMAP
88
88
88
70
70
70
88
88
88
ENDCHAR
STARTCHAR 03C8
ENCODING 968
SWIDTH 720 0
DWIDTH 8 0
BBX 7 9 0 -3
BITMAP
92
92
92
92
78
78
10
10
10
ENDCHAR
STARTCHAR 03C9
ENCODING 969
SWIDTH 720 0
DWIDTH 8 0
BBX 7 6 0 0
BITMAP
48
CA
82
92
DA
48
ENDCHAR
STARTCHAR 2014
ENCODING 8212
SWIDTH 720 0
DWIDTH 8 0
BBX 7 2 0 3
BITMAP
FE
FE
ENDCHAR
STARTCHAR 2018
ENCODING 8216
SWIDTH 270 0
DWIDTH 3 0
BBX 2 4 0 5
BITMAP
40
40
80
80
ENDCHAR
STARTCHAR 2019
ENCODING 8217
SWIDTH 270 0
DWIDTH 3 0
BBX 2 4 0 5
BITMAP
80
80
40
40
ENDCHAR
STARTCHAR 201A
ENCODING 8218
SWIDTH 270 0
DWIDTH 3 0
BBX 2 4 0 -2
BITMAP
40
40
80
80
ENDCHAR
STARTCHAR 201B
ENCODING 8219
SWIDTH 270 0
DWIDTH 3 0
BBX 2 4 0 5
BITMAP
80
80
40
40
ENDCHAR
STARTCHAR 201C
ENCODING 8220
SWIDTH 540 0
DWIDTH 6 0
BBX 5 4 0 5
BITMAP
48
48
90
90
ENDCHAR
STARTCHAR 201D
ENCODING 8221
SWIDTH 540 0
DWIDTH 6 0
BBX 5 4 0 5
BITMAP
90
90
48
48
ENDCHAR
STARTCHAR 201E
ENCODING 8222
SWIDTH 720 0
DWIDTH 8 0
BBX 7 4 0 -2
BITMAP
42
42
88
88
ENDCHAR
STARTCHAR 2020
ENCODING 8224
SWIDTH 450 0
DWIDTH 5 0
BBX 4 7 0 0
BITMAP
20
F0
F0
20
20
20
20
ENDCHAR
STARTCHAR 2026
ENCODING 8230
SWIDTH 720 0
DWIDTH 8 0
BBX 7 2 0 0
BITMAP
92
92
ENDCHAR
STARTCHAR 2039
ENCODING 8249
SWIDTH 450 0
DWIDTH 5 0
BBX 4 7 0 0
BITMAP
30
70
C0
80
40
70
30
ENDCHAR
STARTCHAR 203A
ENCODING 8250
SWIDTH 450 0
DWIDTH 5 0
BBX 4 7 0 0
BITMAP
80
C0
70
30
40
C0
80
ENDCHAR
STARTCHAR 20AC
ENCODING 8364
SWIDTH 810 0
DWIDTH 9 0
BBX 8 11 0 -2
BITMAP
1E
1E
21
FD
FC
20
FC
FD
21
1E
1E
ENDCHAR
STARTCHAR 2122
ENCODING 8482
SWIDTH 1260 0
DWIDTH 14 0
BBX 13 6 0 3
BITMAP
F208
F208
23B8
2248
2248
2208
ENDCHAR
STARTCHAR FB01
ENCODING 64257
SWIDTH 720 0
DWIDTH 8 0
BBX 7 7 0 0
BITMAP
12
32
F2
F2
22
22
22
ENDCHAR
STARTCHAR FB02
ENCODING 64258
SWIDTH 720 0
DWIDTH 8 0
BBX 7 7 0 0
BITMAP
12
32
F2
F2
22
22
22
ENDCHAR
ENDFONT
